Check out the music video for Taylor's collaboration with B.o.B, "Both of Us"!

General
Complete name                  : Both Of Us featuring Taylor Swift.mp4
Format                         : MPEG-4
Format profile                 : Base Media / Version 2
Codec ID                       : mp42
File size                      : 92.5 MiB
Duration                       : 3mn 39s
Overall bit rate mode          : Variable
Overall bit rate               : 3 542 Kbps
Encoded date                   : UTC 2012-06-25 22:28:29
Tagged date                    : UTC 2012-06-25 22:28:29
gsst                           : 0
gstd                           : 219195
gshh                           :

Video
ID                             : 1
Format                         : AVC
Format/Info                    : Advanced Video Codec
Format profile                 : High@L4.0
Format settings, CABAC         : Yes
Format settings, ReFrames      : 1 frame
Codec ID                       : avc1
Codec ID/Info                  : Advanced Video Coding
Duration                       : 3mn 39s
Bit rate                       : 3 390 Kbps
Maximum bit rate               : 7 242 Kbps
Width                          : 1 920 pixels
Height                         : 1 080 pixels
Display aspect ratio           : 16:9
Frame rate mode                : Constant
Frame rate                     : 23.976 fps
Color space                    : YUV
Chroma subsampling             : 4:2:0
Bit depth                      : 8 bits
Scan type                      : Progressive
Bits/(Pixel*Frame)             : 0.068
Stream size                    : 88.5 MiB (96%)
Tagged date                    : UTC 2012-06-25 22:28:30

Audio
ID                             : 2
Format                         : AAC
Format/Info                    : Advanced Audio Codec
Format profile                 : LC
Codec ID                       : 40
Duration                       : 3mn 39s
Bit rate mode                  : Variable
Bit rate                       : 149 Kbps
Maximum bit rate               : 175 Kbps
Channel(s)                     : 2 channels
Channel positions              : Front: L R
Sampling rate                  : 44.1 KHz
Compression mode               : Lossy
Stream size                    : 3.90 MiB (4%)
Title                          : IsoMedia File Produced by Google, 5-11-2011
Encoded date                   : UTC 2012-06-25 22:28:30
Tagged date                    : UTC 2012-06-25 22:28:30

